<?xml version="1.0" encoding="utf-8"?>
<!-- Generator: Adobe Illustrator 24.3.0, SVG Export Plug-In . SVG Version: 6.00 Build 0)  -->
<svg version="1.1" id="Layer_1" xmlns="http://www.w3.org/2000/svg" xmlns:xlink="http://www.w3.org/1999/xlink" x="0px" y="0px"
	 viewBox="0 0 248.05 166.74" style="enable-background:new 0 0 248.05 166.74;" xml:space="preserve">
<style type="text/css">
	.st0{fill:url(#SVGID_1_);}
	.st1{fill:#F9B233;}
	.st2{fill:url(#SVGID_2_);}
	.st3{fill:url(#SVGID_3_);}
	.st4{fill:#808080;}
	.st5{fill:url(#SVGID_4_);}
	.st6{fill:url(#SVGID_5_);}
	.st7{fill:#006633;}
</style>
<g>
	
		<linearGradient id="SVGID_1_" gradientUnits="userSpaceOnUse" x1="1389.5929" y1="-876.2729" x2="1460.7472" y2="-990.4845" gradientTransform="matrix(-0.8679 0.4967 -0.4967 -0.8679 833.2794 -1401.5687)">
		<stop  offset="0" style="stop-color:#FFFFFF"/>
		<stop  offset="0.0597" style="stop-color:#FFF6EA"/>
		<stop  offset="0.189" style="stop-color:#FFE5BF"/>
		<stop  offset="0.3212" style="stop-color:#FDD698"/>
		<stop  offset="0.4539" style="stop-color:#FCC976"/>
		<stop  offset="0.5875" style="stop-color:#FBBF5B"/>
		<stop  offset="0.7222" style="stop-color:#FAB845"/>
		<stop  offset="0.8587" style="stop-color:#FAB438"/>
		<stop  offset="1" style="stop-color:#F9B233"/>
	</linearGradient>
	<path class="st0" d="M45.39,141.01c0.53,0.47,1.03,0.97,1.58,1.44c7.96,6.73,15.8,11.87,23.49,15.42c7.69,3.53,14.49,5.86,20.39,7
		c5.63,1.04,9.24,2.15,14.32,1.81c5.3-0.35,15.67-2.78,15.67-2.78c-1.59-0.36-3.11-0.81-4.5-1.52c-1.6-0.81-3.08-1.68-4.5-2.58
		c-5.38-1.3-10.57-2.94-15.33-5.78c-28.36-17.83-39.88-49.84-56.1-76.88C30.93,63.12,16.88,53.07,1.9,44.27
		c-0.48,0.12-0.89,0.26-1.24,0.37c-0.77,0.27-0.87,1.2-0.28,2.76c3.32,6.68,6.02,12.4,7.97,17.18c1.99,4.77,4.25,9.98,6.76,15.66
		c2.53,5.66,4.73,11.04,6.59,16.07l6.86,18.58C32.55,125.72,38.17,134.4,45.39,141.01z"/>
	<path class="st1" d="M96.51,154.02c4.76,2.84,9.95,4.48,15.33,5.78c-2.12-1.4-4.03-2.9-5.71-4.54c-2.76-2.7-4.79-5.58-6.14-8.62
		c-1.33-3.04-2.27-5.31-2.86-6.86c-0.72-1.96-2.03-5.21-3.92-9.79c-1.92-4.57-3.8-9.37-5.65-14.41L80.7,97
		c-0.33-0.92-0.69-1.75-1.03-2.64C74,79.83,67.17,68.92,59.12,61.71c-8.53-7.63-16.85-12.82-24.91-15.58
		c-8.04-2.74-15.18-3.85-21.34-3.31c-5.11,0.42-8.75,0.91-10.98,1.46c14.98,8.8,29.03,18.85,38.51,32.88
		C56.63,104.19,68.15,136.19,96.51,154.02z"/>
	
		<linearGradient id="SVGID_2_" gradientUnits="userSpaceOnUse" x1="1273.8586" y1="-800.6211" x2="1445.6151" y2="-1006.7293" gradientTransform="matrix(-0.8679 0.4967 -0.4967 -0.8679 833.2794 -1401.5687)">
		<stop  offset="0" style="stop-color:#F298AD"/>
		<stop  offset="0.5549" style="stop-color:#D4121A"/>
		<stop  offset="1" style="stop-color:#9A1A15"/>
	</linearGradient>
	<path class="st2" d="M95.27,32.89c2.87,14.24,6.87,27.85,6.23,42.6c-0.82,11.81-3.49,21.67-5.2,33.23
		c-3.08,18.42,2.62,36.35,16.49,47.34c1.48,1.38,3.08,2.7,4.76,3.96c-2.31-3.69-3.98-7.37-4.95-11.04c-1-3.73-1.28-7.26-0.89-10.55
		c0.4-3.3,0.75-5.72,1.04-7.36c0.36-2.03,0.9-5.5,1.61-10.41c0.68-4.91,1.53-10,2.5-15.3l3.58-19.47c0.19-0.95,0.31-1.85,0.46-2.8
		c2.53-15.38,2.23-28.26-1.02-38.57c-3.43-10.91-7.95-19.61-13.47-26.09c-5.51-6.45-11.09-11.04-16.67-13.74
		c-5.22-2.54-8.88-4.07-11.01-4.56C84.99,10.64,92.66,20.48,95.27,32.89z"/>
	
		<linearGradient id="SVGID_3_" gradientUnits="userSpaceOnUse" x1="1327.9646" y1="-905.0859" x2="1442.8613" y2="-949.7865" gradientTransform="matrix(-0.8679 0.4967 -0.4967 -0.8679 833.2794 -1401.5687)">
		<stop  offset="0" style="stop-color:#F298AD"/>
		<stop  offset="0.5549" style="stop-color:#D4121A"/>
		<stop  offset="1" style="stop-color:#9A1A15"/>
	</linearGradient>
	<path class="st3" d="M80.57,133.02c4.82,6.96,9.48,12.43,13.98,16.41c4.31,3.79,6.84,6.57,11.38,8.87c4.75,2.41,14.9,5.6,14.9,5.6
		c-1.19-1.12-2.26-2.31-3.1-3.59c-0.06-0.1-0.12-0.2-0.19-0.3c-1.68-1.26-3.27-2.58-4.76-3.96c-13.86-10.99-19.56-28.91-16.49-47.34
		c1.71-11.56,4.38-21.41,5.2-33.23c0.64-14.75-3.36-28.36-6.23-42.6C92.66,20.48,84.99,10.64,78.73,0.11
		c-0.15-0.04-0.3-0.06-0.41-0.1c-0.81-0.14-1.37,0.59-1.67,2.25C76.1,9.7,75.5,16.01,74.74,21.1c-0.7,5.13-1.44,10.76-2.18,16.92
		c-0.7,6.17-1.55,11.91-2.51,17.18l-3.58,19.48c-2.1,11.34-1.68,21.7,1.15,31.05c0.21,0.67,0.4,1.38,0.62,2.03
		C71.67,117.61,75.78,126.02,80.57,133.02z"/>
	<path class="st4" d="M170.07,39.26c-6.74,21.26-23.28,36.03-40.05,51.69c-18.89,18.52-21,47-11.17,70.66
		c1.18,1.38,1.98,2.29,1.98,2.29c-0.45-1.55-0.75-3.12-0.79-4.68c-0.12-4.49,0.36-8.62,1.45-12.39c1.07-3.69,2.64-6.84,4.68-9.46
		c2.06-2.63,3.6-4.52,4.7-5.76c1.37-1.56,3.62-4.24,6.76-8.09c3.13-3.87,6.47-7.79,10.03-11.81l13.14-14.81
		c0.64-0.73,1.22-1.44,1.83-2.17c10.13-11.85,16.49-23.06,19.05-33.57c2.68-11.1,3.32-20.89,1.94-29.29
		c-1.39-8.38-3.79-15.19-7.17-20.37c-3.38-5.23-5.85-8.52-7.4-9.9c-0.51-0.47-1.21-0.28-2.1,0.55c-0.27,1.1-0.37,2.27-0.27,3.47
		C167.61,16.46,173,28.51,170.07,39.26z"/>
	
		<linearGradient id="SVGID_4_" gradientUnits="userSpaceOnUse" x1="1280.756" y1="-948.8171" x2="1406.6147" y2="-939.2717" gradientTransform="matrix(-0.8679 0.4967 -0.4967 -0.8679 833.2794 -1401.5687)">
		<stop  offset="0" style="stop-color:#FFFFFF"/>
		<stop  offset="0.1223" style="stop-color:#E1E1E1"/>
		<stop  offset="0.2925" style="stop-color:#BEBEBE"/>
		<stop  offset="0.4655" style="stop-color:#A3A3A3"/>
		<stop  offset="0.64" style="stop-color:#8F8F8F"/>
		<stop  offset="0.8169" style="stop-color:#848484"/>
		<stop  offset="1" style="stop-color:#808080"/>
	</linearGradient>
	<path class="st5" d="M118.85,161.62c-9.82-23.67-7.71-52.15,11.17-70.66c16.76-15.66,33.3-30.44,40.05-51.69
		c2.93-10.75-2.46-22.8-3.37-33.62c-0.11-1.2,0-2.37,0.27-3.47c-0.15,0.16-0.32,0.31-0.47,0.51c-4.3,6.08-8.08,11.18-11.35,15.13
		c-3.27,4.04-6.79,8.48-10.62,13.37c-3.78,4.93-7.48,9.38-11.03,13.41l-13.13,14.83c-7.65,8.64-12.63,17.71-15.05,27.2
		c-0.17,0.67-0.37,1.36-0.51,2.05c-2.16,10.21-2.98,19.54-2.49,28.01c0.54,8.44,1.7,15.54,3.49,21.28
		c1.73,5.44,2.48,9.15,5.18,13.45C112.84,154.4,116.55,158.91,118.85,161.62z"/>
	
		<linearGradient id="SVGID_5_" gradientUnits="userSpaceOnUse" x1="1265.7656" y1="-1016.9283" x2="1398.3649" y2="-923.9271" gradientTransform="matrix(-0.8679 0.4967 -0.4967 -0.8679 833.2794 -1401.5687)">
		<stop  offset="0" style="stop-color:#C8D419"/>
		<stop  offset="0.0422" style="stop-color:#B8C822"/>
		<stop  offset="0.1966" style="stop-color:#86A52F"/>
		<stop  offset="0.3536" style="stop-color:#5C8B33"/>
		<stop  offset="0.5117" style="stop-color:#3C7A34"/>
		<stop  offset="0.6711" style="stop-color:#216E34"/>
		<stop  offset="0.8327" style="stop-color:#076733"/>
		<stop  offset="1" style="stop-color:#006633"/>
	</linearGradient>
	<path class="st6" d="M146.9,119.12c26.32-18.84,61.83-20.24,84.06-43.55c6.59-7.12,12.44-15.56,15.51-25.23
		c-0.46-0.25-1.22-0.21-2.3,0.1c-6.85,2.94-12.73,5.31-17.6,6.96c-4.88,1.74-10.23,3.67-16.03,5.84c-5.81,2.21-11.3,4.08-16.43,5.66
		l-18.95,5.74c-11.05,3.35-20.03,8.46-27.05,15.29c-0.5,0.49-1.04,0.98-1.53,1.48c-7.19,7.57-12.77,15.09-16.78,22.56
		c-3.95,7.48-6.7,14.11-8.15,19.94c-1.4,5.56-2.69,9.11-2.66,14.18c0.02,2.88,0.56,7.27,1.05,10.71
		C125.55,143.51,132.75,129.02,146.9,119.12z"/>
	<path class="st7" d="M146.9,119.12c-14.14,9.9-21.35,24.4-26.86,39.68c0.42,2.9,0.8,5.1,0.8,5.1c0.44-1.55,1.01-3.06,1.78-4.4
		c2.26-3.89,4.83-7.14,7.72-9.79c2.85-2.58,5.86-4.46,8.96-5.62c3.1-1.17,5.43-1.96,7.01-2.45c1.98-0.61,5.31-1.71,10-3.33
		c4.67-1.66,9.57-3.25,14.72-4.81l18.95-5.76c0.92-0.27,1.79-0.59,2.68-0.87c14.84-4.81,26.13-11.01,33.8-18.62
		c8.11-8.07,13.78-16.07,17.01-23.94c3.2-7.87,4.72-14.93,4.57-21.12c-0.15-6.21-0.52-10.32-1.12-12.31
		c-0.08-0.26-0.23-0.43-0.46-0.55c-3.07,9.67-8.92,18.11-15.51,25.23C208.72,98.88,173.22,100.28,146.9,119.12z"/>
</g>
</svg>
